<?xml version="1.0" encoding="UTF-8"?>
<svg id="Layer_2" xmlns="http://www.w3.org/2000/svg" viewBox="0 0 48.04 47.96">
  <defs>
    <style>
      .cls-1 {
        fill: #fff;
      }

      .cls-2 {
        fill: #e3b660;
      }
    </style>
  </defs>
  <g id="Layer_1-2" data-name="Layer_1">
    <rect class="cls-2" width="48.04" height="47.96"/>
    <path class="cls-1" d="M19.68,3.08v2.33c-2.23,0-3.79.5-4.68,1.5-.89,1-1.34,2.48-1.34,4.44v10.54h20.6v-11.09c0-1.51-.43-2.79-1.28-3.83-.85-1.04-2.23-1.56-4.12-1.56v-2.33s17.2,0,17.2,0v2.33c-2.12,0-3.64.48-4.57,1.44-.93.96-1.39,2.54-1.39,4.75v24.58c0,2.37.46,4.02,1.39,4.96.93.94,2.45,1.41,4.57,1.41v2.33s-17.2,0-17.2,0v-2.33c1.93,0,3.31-.52,4.15-1.56.84-1.04,1.25-2.42,1.25-4.14v-11.77H13.66v11.52c0,2,.45,3.49,1.34,4.47.89.98,2.45,1.47,4.68,1.47v2.33s-17.7,0-17.7,0v-2.33c2,0,3.48-.44,4.43-1.32.95-.88,1.42-2.48,1.42-4.81V11.23c0-1.96-.44-3.42-1.31-4.38-.87-.96-2.39-1.44-4.54-1.44v-2.33s17.7,0,17.7,0Z"/>
  </g>
</svg>